<svg fill="#000000" xmlns="http://www.w3.org/2000/svg"  viewBox="0 0 48 48" width="60px" height="60px"><path d="M 24 1.9648438 C 19.424 1.9648438 15.670703 3.4583438 12.845703 6.4023438 C 9.057532 10.350719 7.2221918 16.705561 7.5351562 24.783203 C 7.5257537 25.037809 7.4989954 25.282629 7.5 25.542969 C 7.5 32.342969 5.9995156 36.548969 5.3535156 38.042969 C 5.0195156 38.817969 5.0965469 39.69925 5.5605469 40.40625 C 6.0245469 41.11125 6.8054375 41.533203 7.6484375 41.533203 L 9.5 41.533203 L 9.5 43.269531 C 9.5 44.135531 9.9379219 44.927719 10.669922 45.386719 C 11.401922 45.847719 12.306891 45.897484 13.087891 45.521484 L 16.558594 43.84375 L 18.220703 45.984375 C 18.714703 46.620375 19.448359 46.955078 20.193359 46.955078 C 20.702359 46.955078 21.216109 46.799563 21.662109 46.476562 L 24 44.783203 L 26.335938 46.476562 C 27.435938 47.272562 28.944344 47.054375 29.777344 45.984375 L 31.439453 43.84375 L 34.912109 45.521484 C 35.692109 45.898484 36.597125 45.845719 37.328125 45.386719 C 38.062125 44.927719 38.5 44.136531 38.5 43.269531 L 38.5 41.53125 L 40.351562 41.53125 C 41.195563 41.53125 41.975406 41.110344 42.441406 40.402344 C 42.903406 39.698344 42.979531 38.815969 42.644531 38.042969 C 41.999531 36.549969 40.5 32.342969 40.5 25.542969 L 40.5 25.537109 C 40.499451 25.39985 40.48743 25.2702 40.484375 25.134766 C 40.645278 16.336957 38.853311 9.9512672 35.146484 6.1660156 C 32.418484 3.3780156 28.669 1.9648438 24 1.9648438 z M 24 4.9648438 C 27.886 4.9648438 30.830906 6.0436719 33.003906 8.2636719 C 34.604593 9.8989354 35.778135 12.183778 36.525391 15.091797 C 34.652989 13.323046 32.148589 12.110947 29.041016 11.509766 C 29.643016 10.598766 29.927656 9.831875 29.972656 8.921875 C 29.978656 8.799875 29.907922 8.687625 29.794922 8.640625 C 29.681922 8.593625 29.55075 8.6228906 29.46875 8.7128906 C 28.79975 9.4468906 28.085203 9.769125 27.033203 10.203125 C 26.395203 8.530125 25.689203 7.4102187 24.533203 6.3242188 C 24.457203 6.2522187 24.348047 6.2287656 24.248047 6.2597656 C 24.148047 6.2917656 24.073734 6.3745625 24.052734 6.4765625 C 23.707734 8.1495625 23.262047 9.1831406 22.123047 10.244141 C 20.984047 9.4041406 20.12225 9.0415 18.78125 8.8125 C 18.66525 8.7925 18.548328 8.8433594 18.486328 8.9433594 C 18.424328 9.0433594 18.43 9.1725781 18.5 9.2675781 C 18.97 9.9145781 19.161047 10.645062 19.248047 11.539062 C 17.361047 11.929063 15.298828 12.616453 13.423828 13.814453 C 12.674348 14.293197 11.993944 14.831994 11.382812 15.423828 C 12.130356 12.561781 13.344048 10.216365 15.009766 8.4804688 C 17.248766 6.1484687 20.273 4.9648438 24 4.9648438 z M 24.46875 10.017578 C 24.62475 10.005578 24.770938 10.092375 24.835938 10.234375 C 25.236937 11.113375 25.472625 12.048359 25.640625 13.318359 C 26.175625 13.066359 26.573125 12.864469 26.953125 12.480469 C 27.043125 12.389469 27.184875 12.368688 27.296875 12.429688 C 27.409875 12.490687 27.467406 12.617187 27.441406 12.742188 C 27.334406 13.254188 27.166062 13.720891 26.914062 14.212891 C 33.777345 14.973406 37.329218 18.652777 37.486328 25.179688 C 37.485774 25.207324 37.486922 25.232073 37.486328 25.259766 L 37.488281 25.259766 C 37.490206 25.357475 37.49959 25.449849 37.5 25.548828 C 37.5 32.053828 38.807422 36.451203 39.607422 38.533203 L 38 38.533203 C 36.622 38.533203 35.5 39.655203 35.5 41.033203 L 35.5 42.474609 L 32.382812 40.96875 C 31.328813 40.45775 30.037359 40.759547 29.318359 41.685547 L 27.705078 43.763672 L 25.466797 42.142578 C 24.590797 41.507578 23.410203 41.507578 22.533203 42.142578 L 20.294922 43.763672 L 18.681641 41.685547 C 18.197641 41.060547 17.454219 40.720703 16.699219 40.720703 C 16.333219 40.720703 15.964141 40.80175 15.619141 40.96875 L 12.5 42.474609 L 12.5 41.033203 C 12.5 39.655203 11.378 38.533203 10 38.533203 L 8.3925781 38.533203 C 9.1925781 36.451203 10.5 32.050109 10.5 25.537109 C 10.498995 25.275329 10.52204 25.030641 10.533203 24.777344 L 10.535156 24.777344 C 10.534686 24.765942 10.535617 24.755535 10.535156 24.744141 C 10.709113 20.98209 12.208589 18.148985 15.037109 16.341797 C 16.903109 15.148797 19.039766 14.570922 20.884766 14.294922 C 20.949766 13.409922 20.942047 12.692922 20.748047 12.044922 C 20.710047 11.916922 20.749562 11.778406 20.851562 11.691406 C 20.952562 11.604406 21.095797 11.585578 21.216797 11.642578 C 21.814797 11.924578 22.234281 12.306578 22.738281 13.017578 C 23.430281 12.253578 23.801672 11.468156 24.138672 10.285156 C 24.181672 10.135156 24.31275 10.028578 24.46875 10.017578 z M 19 19 C 14.36 19 13.308312 23.784125 13.070312 25.953125 C 13.054312 26.103125 13.127812 26.248266 13.257812 26.322266 C 13.388813 26.397266 13.550875 26.386875 13.671875 26.296875 C 14.439875 25.720875 16 25 19 25 C 20.657 25 22 23.657 22 22 C 22 20.343 20.657 19 19 19 z M 29 19 C 27.343 19 26 20.343 26 22 C 26 23.657 27.343 25 29 25 C 31.999 25 33.558172 25.719922 34.326172 26.294922 C 34.447172 26.384922 34.609234 26.395313 34.740234 26.320312 C 34.871234 26.245313 34.946687 26.101172 34.929688 25.951172 C 34.691688 23.782172 33.639 19 29 19 z M 19 21 C 19.552 21 20 21.448 20 22 C 20 22.552 19.552 23 19 23 C 18.448 23 18 22.552 18 22 C 18 21.448 18.448 21 19 21 z M 29 21 C 29.552 21 30 21.448 30 22 C 30 22.552 29.552 23 29 23 C 28.448 23 28 22.552 28 22 C 28 21.448 28.448 21 29 21 z M 24 26 C 22 26 21 28.5 21 29 C 21 29.82 21.67 30.630391 23 30.900391 C 23.3 30.970391 23.63 31 24 31 C 24.37 31 24.7 30.970391 25 30.900391 C 26.33 30.630391 27 29.82 27 29 C 27 28.5 26 26 24 26 z M 19 33 C 17.9 33 17 33.9 17 35 C 17 36.1 17.9 37 19 37 L 21 37 L 21.677734 35.646484 C 21.738734 35.524484 21.863 35.445312 22 35.445312 C 22.137 35.445312 22.261266 35.523484 22.322266 35.646484 L 23 37 L 25 37 L 25.6875 35.625 C 25.7465 35.507 25.868 35.431641 26 35.431641 C 26.132 35.431641 26.2535 35.507 26.3125 35.625 L 27 37 L 29 37 C 30.1 37 31 36.1 31 35 C 31 33.9 30.1 33 29 33 L 28.306641 34.384766 C 28.248641 34.500766 28.13 34.574219 28 34.574219 C 27.87 34.574219 27.751359 34.501766 27.693359 34.384766 L 27 33 L 21 33 L 20.337891 34.324219 C 20.273891 34.452219 20.143 34.533203 20 34.533203 C 19.857 34.533203 19.726109 34.452219 19.662109 34.324219 L 19 33 z"/></svg>